<?xml version="1.0" encoding="UTF-8"?>
<svg width="40" height="40" viewBox="0 0 40 40" xmlns="http://www.w3.org/2000/svg">
  <!-- Cog/gear icon - solid gear shape with 8 teeth -->
  <path d="M 20,4 L 22.5,4 L 22.5,8 L 26,10 L 30,7.5 L 31.5,9 L 29,13 L 31,16.5 L 35.5,16.5 L 35.5,19 L 36,19 L 36,21 L 35.5,21 L 35.5,23.5 L 31,23.5 L 29,27 L 31.5,31 L 30,32.5 L 26,30 L 22.5,32 L 22.5,36 L 20,36 L 17.5,36 L 17.5,32 L 14,30 L 10,32.5 L 8.5,31 L 11,27 L 9,23.5 L 4.5,23.5 L 4.5,21 L 4,21 L 4,19 L 4.5,19 L 4.5,16.5 L 9,16.5 L 11,13 L 8.5,9 L 10,7.5 L 14,10 L 17.5,8 L 17.5,4 Z" fill="#00FF00"/>
  <!-- Center hole -->
  <circle cx="20" cy="20" r="6" fill="#000000"/>
</svg>
